<?xml version="1.0" encoding="UTF-8"?>
<!DOCTYPE svg PUBLIC "-//W3C//DTD SVG 1.1//EN" "http://www.w3.org/Graphics/SVG/1.1/DTD/svg11.dtd">
<svg xmlns="http://www.w3.org/2000/svg" version="1.1" width="638px" height="131px" style="shape-rendering:geometricPrecision; text-rendering:geometricPrecision; image-rendering:optimizeQuality; fill-rule:evenodd; clip-rule:evenodd" xmlns:xlink="http://www.w3.org/1999/xlink">
<g><path style="opacity:0.288" fill="#2177fb" d="M 520.5,1.5 C 513.345,2.32879 506.011,2.82879 498.5,3C 500.087,3.86241 501.754,4.52907 503.5,5C 498.706,6.5913 493.873,8.0913 489,9.5C 486.812,9.64602 485.479,8.64602 485,6.5C 482.833,8 483,9.16667 485.5,10C 482.684,11.7693 479.851,14.2693 477,17.5C 476.577,16.0439 475.744,15.5439 474.5,16C 473.167,16.6667 473.167,17.3333 474.5,18C 473.016,18.6622 471.683,19.4955 470.5,20.5C 476.009,9.4001 485.009,3.23343 497.5,2C 505.159,1.50031 512.826,1.33365 520.5,1.5 Z"/></g>
<g><path style="opacity:0.004" fill="#0003ff" d="M 143.5,5.5 C 142.848,36.6275 142.181,67.6275 141.5,98.5C 141.333,67.8315 141.5,37.1649 142,6.5C 142.383,5.94404 142.883,5.61071 143.5,5.5 Z"/></g>
<g><path style="opacity:0.004" fill="#030fff" d="M 555.5,5.5 C 554.608,10.4376 554.274,15.4376 554.5,20.5C 553.352,16.0189 553.185,11.3522 554,6.5C 554.383,5.94404 554.883,5.61071 555.5,5.5 Z"/></g>
<g><path style="opacity:0.999" fill="#e0e9f4" d="M 534.5,16.5 C 533.662,16.8417 533.328,17.5084 533.5,18.5C 530.112,14.4691 525.778,11.9691 520.5,11C 512.5,10.3333 504.5,10.3333 496.5,11C 486.449,13.5529 479.782,19.7195 476.5,29.5C 473.982,42.6023 478.315,52.7689 489.5,60C 496.954,64.0621 504.621,67.5621 512.5,70.5C 519.065,73.2367 524.231,77.57 528,83.5C 529.518,99.8203 522.018,108.154 505.5,108.5C 498.898,108.577 492.898,106.743 487.5,103C 486.695,101.887 486.028,100.721 485.5,99.5C 486.404,98.791 486.737,97.791 486.5,96.5C 487.385,99.06 489.051,101.06 491.5,102.5C 492.842,103.793 494.509,104.626 496.5,105C 502.5,105.667 508.5,105.667 514.5,105C 523.886,101.055 527.552,94.2217 525.5,84.5C 523.965,80.0414 520.965,76.8748 516.5,75C 505.843,70.6689 495.509,65.8356 485.5,60.5C 472.607,49.1577 470.107,35.8244 478,20.5C 485.983,11.2226 496.149,6.88927 508.5,7.5C 514.283,7.52875 519.949,8.36209 525.5,10C 528.961,11.6428 531.961,13.8095 534.5,16.5 Z"/></g>
<g><path style="opacity:0.337" fill="#1582ec" d="M 320.5,4.5 C 320.351,5.55198 320.517,6.55198 321,7.5C 321.333,7.16667 321.667,6.83333 322,6.5C 326.744,7.66336 330.411,10.33 333,14.5C 333.667,15.5 333.667,16.5 333,17.5C 331.512,15.84 329.679,14.84 327.5,14.5C 306.316,2.99881 287.15,5.66548 270,22.5C 267.653,25.1943 265.82,28.1943 264.5,31.5C 263.883,31.3893 263.383,31.056 263,30.5C 261.928,33.2179 260.762,35.8845 259.5,38.5C 258.176,36.5535 256.51,36.5535 254.5,38.5C 265.84,6.49649 287.84,-4.83684 320.5,4.5 Z"/></g>
<g><path style="opacity:0.999" fill="#e9eff6" d="M 620.5,9.5 C 620.5,14.1667 620.5,18.8333 620.5,23.5C 605.5,23.5 590.5,23.5 575.5,23.5C 575.5,33.5 575.5,43.5 575.5,53.5C 577.5,53.5 579.5,53.5 581.5,53.5C 592.5,53.5 603.5,53.5 614.5,53.5C 614.5,57.5 614.5,61.5 614.5,65.5C 601.5,65.5 588.5,65.5 575.5,65.5C 575.5,77.5 575.5,89.5 575.5,101.5C 591.5,101.5 607.5,101.5 623.5,101.5C 623.5,105.833 623.5,110.167 623.5,114.5C 602.5,114.5 581.5,114.5 560.5,114.5C 560.5,79.5 560.5,44.5 560.5,9.5C 580.5,9.5 600.5,9.5 620.5,9.5 Z"/></g>
<g><path style="opacity:0.881" fill="#e2e4e7" d="M 59.5,89.5 C 59.6657,93.8461 59.499,98.1794 59,102.5C 58.8247,97.9805 58.3247,93.6472 57.5,89.5C 57.5328,85.1311 57.1995,80.7978 56.5,76.5C 56.1667,71.1667 55.8333,65.8333 55.5,60.5C 55.5,53.8333 55.5,47.1667 55.5,40.5C 55.9204,30.7529 55.4204,21.0862 54,11.5C 50.8584,9.05219 47.6917,9.21886 44.5,12C 34.1135,19.9465 25.4468,29.4465 18.5,40.5C 14.7917,47.0418 12.4583,54.0418 11.5,61.5C 10.6559,66.7695 9.98925,72.1028 9.5,77.5C 9.5,85.1667 9.5,92.8333 9.5,100.5C 9.67158,101.492 9.33825,102.158 8.5,102.5C 1.19538,65.2371 12.1954,34.7371 41.5,11C 45.3871,7.97017 49.7205,6.97017 54.5,8C 55.8633,9.94493 56.6966,12.1116 57,14.5C 56.8362,39.4903 57.6695,64.4903 59.5,89.5 Z"/></g>
<g><path style="opacity:0.376" fill="#107ce1" d="M 165.5,3.5 C 166.889,6.39539 166.223,8.72873 163.5,10.5C 158.26,9.55087 152.927,9.21754 147.5,9.5C 147.5,44.5 147.5,79.5 147.5,114.5C 147.5,115.833 147.5,117.167 147.5,118.5C 145.901,118.232 144.568,118.566 143.5,119.5C 142.883,119.389 142.383,119.056 142,118.5C 141.5,111.842 141.334,105.175 141.5,98.5C 142.181,67.6275 142.848,36.6275 143.5,5.5C 143.918,4.77842 144.584,4.27842 145.5,4C 152.158,3.50042 158.825,3.33375 165.5,3.5 Z"/></g>
<g><path style="opacity:0.745" fill="#034b87" d="M 239.5,3.5 C 240.906,3.97306 241.573,4.97306 241.5,6.5C 240.531,43.8133 240.198,81.1466 240.5,118.5C 233.82,118.612 227.153,118.946 220.5,119.5C 221.531,118.751 222.698,118.085 224,117.5C 224.47,116.423 224.303,115.423 223.5,114.5C 228.167,114.5 232.833,114.5 237.5,114.5C 237.5,79.5 237.5,44.5 237.5,9.5C 238.5,9.5 239.5,9.5 240.5,9.5C 240.483,7.43525 240.15,5.43525 239.5,3.5 Z"/></g>
<g><path style="opacity:0.342" fill="#2983eb" d="M 622.5,3.5 C 623.15,5.43525 623.483,7.43525 623.5,9.5C 622.5,9.5 621.5,9.5 620.5,9.5C 600.5,9.5 580.5,9.5 560.5,9.5C 560.5,44.5 560.5,79.5 560.5,114.5C 561.734,116.398 561.401,118.065 559.5,119.5C 558.391,119.557 557.391,119.89 556.5,120.5C 555.833,120.5 555.5,120.167 555.5,119.5C 554.99,116.017 554.323,112.684 553.5,109.5C 553.931,79.8083 554.265,50.1416 554.5,20.5C 554.274,15.4376 554.608,10.4376 555.5,5.5C 555.918,4.77842 556.584,4.27842 557.5,4C 579.164,3.50004 600.831,3.33337 622.5,3.5 Z"/></g>
<g><path style="opacity:0.551" fill="#08192e" d="M 241.5,6.5 C 241.344,43.2743 241.511,80.2743 242,117.5C 240.764,119.538 238.931,120.705 236.5,121C 230.984,121.817 225.65,121.651 220.5,120.5C 220.5,120.167 220.5,119.833 220.5,119.5C 227.153,118.946 233.82,118.612 240.5,118.5C 240.198,81.1466 240.531,43.8133 241.5,6.5 Z"/></g>
<g><path style="opacity:1" fill="#6ca3e5" d="M 533.5,18.5 C 535.65,21.472 536.65,24.8053 536.5,28.5C 532.833,28.5 529.167,28.5 525.5,28.5C 524.793,23.2898 521.793,20.1231 516.5,19C 503.928,15.4033 494.261,18.9033 487.5,29.5C 483.88,28.4538 480.214,28.4538 476.5,29.5C 479.782,19.7195 486.449,13.5529 496.5,11C 504.5,10.3333 512.5,10.3333 520.5,11C 525.778,11.9691 530.112,14.4691 533.5,18.5 Z"/></g>
<g><path style="opacity:1" fill="#e3eaf2" d="M 534.5,16.5 C 535.846,18.5368 537.18,20.5368 538.5,22.5C 539.092,25.1272 539.425,27.7938 539.5,30.5C 534.167,30.5 528.833,30.5 523.5,30.5C 523.017,24.5193 519.683,21.3527 513.5,21C 503.116,18.2862 495.282,21.4529 490,30.5C 488.576,37.0644 490.409,42.3978 495.5,46.5C 505.716,52.6446 516.383,58.1446 527.5,63C 529.66,64.332 531.66,65.832 533.5,67.5C 544.552,80.03 545.385,93.3633 536,107.5C 530.867,113.484 524.367,116.984 516.5,118C 508.833,118.667 501.167,118.667 493.5,118C 484.989,116.588 478.322,112.421 473.5,105.5C 471.709,100.667 470.709,95.6666 470.5,90.5C 476.026,90.1786 481.36,90.5119 486.5,91.5C 486.5,93.1667 486.5,94.8333 486.5,96.5C 486.737,97.791 486.404,98.791 485.5,99.5C 484.631,97.283 484.298,94.9496 484.5,92.5C 480.833,92.5 477.167,92.5 473.5,92.5C 473.514,102.695 478.181,109.861 487.5,114C 500.262,117.529 512.928,117.195 525.5,113C 538.013,105.14 542.513,93.9735 539,79.5C 537.695,75.2027 535.195,71.8694 531.5,69.5C 530.284,67.5491 528.618,66.0491 526.5,65C 516.014,60.2564 505.68,55.2564 495.5,50C 488.816,44.7874 486.149,37.9541 487.5,29.5C 494.261,18.9033 503.928,15.4033 516.5,19C 521.793,20.1231 524.793,23.2898 525.5,28.5C 529.167,28.5 532.833,28.5 536.5,28.5C 536.65,24.8053 535.65,21.472 533.5,18.5C 533.328,17.5084 533.662,16.8417 534.5,16.5 Z"/></g>
<g><path style="opacity:0.894" fill="#d3d6d9" d="M 109.5,115.5 C 108.5,115.5 107.5,115.5 106.5,115.5C 109.529,113.628 111.695,110.961 113,107.5C 114.158,102.882 114.992,98.2158 115.5,93.5C 115.5,87.8333 115.5,82.1667 115.5,76.5C 115.732,70.3841 115.066,64.3841 113.5,58.5C 112.602,53.466 110.935,48.7994 108.5,44.5C 100.053,29.3853 88.0525,18.052 72.5,10.5C 70.9707,10.5288 69.804,11.1955 69,12.5C 68.3791,22.2308 68.8791,31.8975 70.5,41.5C 70.5,49.1667 70.5,56.8333 70.5,64.5C 70.5,68.1667 70.5,71.8333 70.5,75.5C 70.5,81.5 70.5,87.5 70.5,93.5C 70.0594,100.462 71.2261,107.129 74,113.5C 79.3583,118.898 85.8583,120.898 93.5,119.5C 90.8953,120.931 85.562,120.931 77.5,119.5C 72.7758,117.424 69.9425,113.758 69,108.5C 68.9542,79.4702 68.1209,50.4702 66.5,21.5C 66.6667,18.1667 66.8333,14.8333 67,11.5C 67.3742,10.5838 67.8742,9.75044 68.5,9C 71.1667,8.33333 73.8333,8.33333 76.5,9C 114.153,32.652 126.986,66.152 115,109.5C 114.285,112.641 112.452,114.641 109.5,115.5 Z"/></g>
<g><path style="opacity:0.75" fill="#0a457c" d="M 532.5,5.5 C 542.409,12.5643 545.742,21.8976 542.5,33.5C 535.159,33.6663 527.826,33.4997 520.5,33C 519.283,31.3523 518.45,29.519 518,27.5C 517.184,26.1772 516.017,25.5106 514.5,25.5C 507.348,23.6073 501.182,25.274 496,30.5C 493.389,36.1158 494.889,40.2825 500.5,43C 508.924,46.8823 517.257,50.7156 525.5,54.5C 518.198,52.7794 511.198,49.9461 504.5,46C 501.648,45.7306 498.982,44.8972 496.5,43.5C 495.614,44.325 495.281,45.325 495.5,46.5C 490.409,42.3978 488.576,37.0644 490,30.5C 495.282,21.4529 503.116,18.2862 513.5,21C 519.683,21.3527 523.017,24.5193 523.5,30.5C 528.833,30.5 534.167,30.5 539.5,30.5C 539.425,27.7938 539.092,25.1272 538.5,22.5C 540.009,23.8595 540.676,23.3595 540.5,21C 540.629,16.6005 538.795,13.4338 535,11.5C 533.878,9.59321 533.045,7.59321 532.5,5.5 Z"/></g>
<g><path style="opacity:0.004" fill="#0311ff" d="M 470.5,20.5 C 470.598,22.5529 469.931,24.2196 468.5,25.5C 468.402,23.4471 469.069,21.7804 470.5,20.5 Z"/></g>
<g><path style="opacity:0.73" fill="#0e4b85" d="M 622.5,3.5 C 623.5,3.83333 624.167,4.5 624.5,5.5C 624.091,12.4059 623.425,19.2393 622.5,26C 608.171,26.4999 593.837,26.6666 579.5,26.5C 579.5,34.1667 579.5,41.8333 579.5,49.5C 581.5,49.5 583.5,49.5 585.5,49.5C 584.737,50.2679 583.737,50.7679 582.5,51C 581.748,51.6708 581.414,52.5041 581.5,53.5C 579.5,53.5 577.5,53.5 575.5,53.5C 575.5,43.5 575.5,33.5 575.5,23.5C 590.5,23.5 605.5,23.5 620.5,23.5C 620.5,18.8333 620.5,14.1667 620.5,9.5C 621.5,9.5 622.5,9.5 623.5,9.5C 623.483,7.43525 623.15,5.43525 622.5,3.5 Z"/></g>
<g><path style="opacity:0.315" fill="#1282eb" d="M 423.5,3.5 C 423.351,4.55198 423.517,5.55198 424,6.5C 424.333,6.16667 424.667,5.83333 425,5.5C 426.399,6.22662 427.899,6.72662 429.5,7C 430.337,8.01127 430.67,9.17793 430.5,10.5C 429.167,10.5 427.833,10.5 426.5,10.5C 397.339,2.32974 377.506,12.3297 367,40.5C 362.48,60.0414 363.98,79.0414 371.5,97.5C 371.66,99.1992 371.494,100.866 371,102.5C 369.989,101.663 368.822,101.33 367.5,101.5C 366.828,98.2904 365.828,95.1237 364.5,92C 363.87,90.6898 362.87,89.8565 361.5,89.5C 360.662,89.1583 360.328,88.4916 360.5,87.5C 361.152,86.5514 361.486,85.3847 361.5,84C 359.666,71.1812 358.999,58.3479 359.5,45.5C 367.137,10.361 388.47,-3.639 423.5,3.5 Z"/></g>
<g><path style="opacity:0.566" fill="#08182d" d="M 624.5,5.5 C 625.654,11.987 625.821,18.6536 625,25.5C 624.692,26.3081 624.192,26.9747 623.5,27.5C 609.549,28.4825 595.549,28.8159 581.5,28.5C 581.5,35.1667 581.5,41.8333 581.5,48.5C 584.279,48.7214 586.946,48.388 589.5,47.5C 588.817,49.1765 587.483,49.8432 585.5,49.5C 583.5,49.5 581.5,49.5 579.5,49.5C 579.5,41.8333 579.5,34.1667 579.5,26.5C 593.837,26.6666 608.171,26.4999 622.5,26C 623.425,19.2393 624.091,12.4059 624.5,5.5 Z"/></g>
<g><path style="opacity:0.297" fill="#1179d8" d="M 520.5,1.5 C 524.695,2.23154 528.695,3.56487 532.5,5.5C 533.045,7.59321 533.878,9.59321 535,11.5C 538.795,13.4338 540.629,16.6005 540.5,21C 540.676,23.3595 540.009,23.8595 538.5,22.5C 537.18,20.5368 535.846,18.5368 534.5,16.5C 531.961,13.8095 528.961,11.6428 525.5,10C 519.949,8.36209 514.283,7.52875 508.5,7.5C 496.149,6.88927 485.983,11.2226 478,20.5C 470.107,35.8244 472.607,49.1577 485.5,60.5C 485.511,62.0174 486.177,63.1841 487.5,64C 485.212,63.9472 482.879,63.6139 480.5,63C 477.917,60.2453 475.251,57.7453 472.5,55.5C 470.254,53.3511 468.754,50.6844 468,47.5C 467.204,40.0869 467.37,32.7535 468.5,25.5C 469.931,24.2196 470.598,22.5529 470.5,20.5C 471.683,19.4955 473.016,18.6622 474.5,18C 473.167,17.3333 473.167,16.6667 474.5,16C 475.744,15.5439 476.577,16.0439 477,17.5C 479.851,14.2693 482.684,11.7693 485.5,10C 483,9.16667 482.833,8 485,6.5C 485.479,8.64602 486.812,9.64602 489,9.5C 493.873,8.0913 498.706,6.5913 503.5,5C 501.754,4.52907 500.087,3.86241 498.5,3C 506.011,2.82879 513.345,2.32879 520.5,1.5 Z"/></g>
<g><path style="opacity:0.475" fill="#091e38" d="M 514.5,25.5 C 516.017,25.5106 517.184,26.1772 518,27.5C 518.45,29.519 519.283,31.3523 520.5,33C 527.826,33.4997 535.159,33.6663 542.5,33.5C 542.389,34.1174 542.056,34.6174 541.5,35C 534.833,35.7786 528.166,36.1119 521.5,36C 518.893,32.6753 516.56,29.1753 514.5,25.5 Z"/></g>
<g><path style="opacity:1" fill="#99c2f7" d="M 55.5,40.5 C 45.46,41.0868 34.1266,41.0868 21.5,40.5C 20.8076,41.0253 20.3076,41.6919 20,42.5C 19.7216,41.5842 19.2216,40.9175 18.5,40.5C 25.4468,29.4465 34.1135,19.9465 44.5,12C 47.6917,9.21886 50.8584,9.05219 54,11.5C 55.4204,21.0862 55.9204,30.7529 55.5,40.5 Z"/></g>
<g><path style="opacity:0.999" fill="#99c2f6" d="M 108.5,44.5 C 105.311,44.2866 102.478,43.2866 100,41.5C 89.5299,41.8941 79.6966,41.8941 70.5,41.5C 68.8791,31.8975 68.3791,22.2308 69,12.5C 69.804,11.1955 70.9707,10.5288 72.5,10.5C 88.0525,18.052 100.053,29.3853 108.5,44.5 Z"/></g>
<g><path style="opacity:0.999" fill="#e4ebf3" d="M 163.5,10.5 C 173.183,34.05 183.349,57.3833 194,80.5C 195.46,77.2522 196.626,73.9188 197.5,70.5C 205.89,50.7026 214.057,30.7026 222,10.5C 227.072,9.52865 232.238,9.19532 237.5,9.5C 237.5,44.5 237.5,79.5 237.5,114.5C 232.833,114.5 228.167,114.5 223.5,114.5C 223.667,89.8311 223.5,65.1644 223,40.5C 222.392,42.1545 221.892,43.8211 221.5,45.5C 221.405,47.7857 220.738,49.7857 219.5,51.5C 212.998,66.9868 206.664,82.6534 200.5,98.5C 195.88,99.4933 191.214,99.8266 186.5,99.5C 181.789,91.0437 177.456,82.377 173.5,73.5C 171.597,66.7762 168.931,60.4429 165.5,54.5C 163.021,45.2748 161.688,45.6081 161.5,55.5C 161.5,75.1667 161.5,94.8333 161.5,114.5C 156.833,114.5 152.167,114.5 147.5,114.5C 147.5,79.5 147.5,44.5 147.5,9.5C 152.927,9.21754 158.26,9.55087 163.5,10.5 Z M 165.5,54.5 C 164.597,56.6204 163.263,56.9538 161.5,55.5C 161.688,45.6081 163.021,45.2748 165.5,54.5 Z M 221.5,45.5 C 222.468,47.6074 222.802,49.9407 222.5,52.5C 221.209,52.7373 220.209,52.404 219.5,51.5C 220.738,49.7857 221.405,47.7857 221.5,45.5 Z"/></g>
<g><path style="opacity:1" fill="#6ea0de" d="M 175.5,44.5 C 173.152,44.3305 170.818,43.9971 168.5,43.5C 166.97,43.6399 165.97,44.3065 165.5,45.5C 164.048,41.8413 162.381,38.1746 160.5,34.5C 159.833,60.6635 159.167,86.6635 158.5,112.5C 158.989,88.3504 158.489,64.3504 157,40.5C 154.889,40.5773 152.889,40.9106 151,41.5C 150.5,65.1643 150.333,88.831 150.5,112.5C 149.502,79.0041 149.168,45.3375 149.5,11.5C 153.555,11.1758 157.555,11.5091 161.5,12.5C 166.181,23.1926 170.848,33.8593 175.5,44.5 Z"/></g>
<g><path style="opacity:1" fill="#669ddf" d="M 612.5,56.5 C 601.495,56.3335 590.495,56.5002 579.5,57C 577.236,57.2362 575.069,57.7362 573,58.5C 572.311,57.6433 571.478,56.9767 570.5,56.5C 568.154,57.0147 565.487,57.348 562.5,57.5C 562.5,42.1667 562.5,26.8333 562.5,11.5C 581.167,11.5 599.833,11.5 618.5,11.5C 618.5,14.8333 618.5,18.1667 618.5,21.5C 603.5,21.5 588.5,21.5 573.5,21.5C 573.5,32.8333 573.5,44.1667 573.5,55.5C 586.677,55.1712 599.677,55.5045 612.5,56.5 Z"/></g>
<g><path style="opacity:0.468" fill="#061c36" d="M 446.5,19.5 C 449.135,22.079 451.301,25.079 453,28.5C 459.732,48.2183 460.732,68.2183 456,88.5C 455.295,91.4757 454.129,94.1423 452.5,96.5C 458.006,77.3883 458.839,58.055 455,38.5C 452.155,32.1451 449.321,25.8118 446.5,19.5 Z"/></g>
<g><path style="opacity:0.324" fill="#1586f2" d="M 239.5,3.5 C 240.15,5.43525 240.483,7.43525 240.5,9.5C 239.5,9.5 238.5,9.5 237.5,9.5C 232.238,9.19532 227.072,9.52865 222,10.5C 214.057,30.7026 205.89,50.7026 197.5,70.5C 196.521,67.3752 196.187,64.0419 196.5,60.5C 196.34,58.8008 196.506,57.1341 197,55.5C 203.611,39.2779 209.944,22.9445 216,6.5C 216.903,5.29857 218.069,4.46524 219.5,4C 226.158,3.50042 232.825,3.33375 239.5,3.5 Z"/></g>
<g><path style="opacity:1" fill="#e0e8f2" d="M 426.5,10.5 C 440.038,17.8947 448.538,29.2281 452,44.5C 453.541,55.1159 453.875,65.7826 453,76.5C 447.775,107.397 429.608,121.231 398.5,118C 386.73,114.72 377.73,107.886 371.5,97.5C 363.98,79.0414 362.48,60.0414 367,40.5C 377.506,12.3297 397.339,2.32974 426.5,10.5 Z M 429.5,47.5 C 432.318,59.6304 431.818,71.6304 428,83.5C 425.807,92.36 420.307,97.86 411.5,100C 409.402,100.678 407.402,100.511 405.5,99.5C 399.411,98.0662 394.744,94.7329 391.5,89.5C 384.334,73.1625 383.667,56.4958 389.5,39.5C 393.413,31.2771 399.913,26.2771 409,24.5C 414.565,25.1271 419.232,27.4604 423,31.5C 426.018,36.5289 428.184,41.8622 429.5,47.5 Z"/></g>
<g><path style="opacity:1" fill="#e1e8f2" d="M 439.5,69.5 C 439.451,79.6992 436.618,89.0325 431,97.5C 421.754,107.936 410.587,110.77 397.5,106C 387.857,100.244 382.024,91.7444 380,80.5C 379.358,76.5092 378.858,72.5092 378.5,68.5C 375.956,50.1281 381.289,34.6281 394.5,22C 409.374,15.0185 421.874,17.8519 432,30.5C 438.892,42.6153 441.392,55.6153 439.5,69.5 Z M 429.5,47.5 C 432.318,59.6304 431.818,71.6304 428,83.5C 425.807,92.36 420.307,97.86 411.5,100C 409.402,100.678 407.402,100.511 405.5,99.5C 399.411,98.0662 394.744,94.7329 391.5,89.5C 384.334,73.1625 383.667,56.4958 389.5,39.5C 393.413,31.2771 399.913,26.2771 409,24.5C 414.565,25.1271 419.232,27.4604 423,31.5C 426.018,36.5289 428.184,41.8622 429.5,47.5 Z"/></g>
<g><path style="opacity:0.75" fill="#0a4880" d="M 428.5,30.5 C 427.609,31.2613 426.942,32.2613 426.5,33.5C 428.016,37.549 429.35,41.7156 430.5,46C 430.43,46.7648 430.097,47.2648 429.5,47.5C 428.184,41.8622 426.018,36.5289 423,31.5C 419.232,27.4604 414.565,25.1271 409,24.5C 399.913,26.2771 393.413,31.2771 389.5,39.5C 388.356,41.1002 387.189,42.7669 386,44.5C 383.225,59.1348 384.225,73.4681 389,87.5C 389.708,88.3805 390.542,89.0472 391.5,89.5C 394.744,94.7329 399.411,98.0662 405.5,99.5C 403.153,100.716 400.653,100.716 398,99.5C 396.936,100.421 396.436,101.421 396.5,102.5C 392.88,100.715 390.047,98.0483 388,94.5C 377.722,72.9233 378.056,51.59 389,30.5C 398.441,19.7934 409.608,17.6267 422.5,24C 424.706,26.0367 426.706,28.2034 428.5,30.5 Z"/></g>
<g><path style="opacity:1" fill="#669ee0" d="M 451.5,57.5 C 447.826,57.124 444.492,56.9574 441.5,57C 440.86,61.2679 440.193,65.4345 439.5,69.5C 441.392,55.6153 438.892,42.6153 432,30.5C 421.874,17.8519 409.374,15.0185 394.5,22C 381.289,34.6281 375.956,50.1281 378.5,68.5C 377.677,65.023 377.177,61.3563 377,57.5C 374.045,57.3218 370.879,57.3218 367.5,57.5C 367.5,62.8333 367.5,68.1667 367.5,73.5C 364.679,56.4365 367.846,40.4365 377,25.5C 391.801,9.45382 409.301,5.95382 429.5,15C 444.042,25.2465 451.376,39.4132 451.5,57.5 Z"/></g>
<g><path style="opacity:1" fill="#89b7ef" d="M 55.5,40.5 C 55.5,47.1667 55.5,53.8333 55.5,60.5C 51.663,59.8662 47.8297,59.1995 44,58.5C 34.3879,59.6506 24.7212,59.6506 15,58.5C 13.6412,59.365 12.4745,60.365 11.5,61.5C 12.4583,54.0418 14.7917,47.0418 18.5,40.5C 19.2216,40.9175 19.7216,41.5842 20,42.5C 20.3076,41.6919 20.8076,41.0253 21.5,40.5C 34.1266,41.0868 45.46,41.0868 55.5,40.5 Z"/></g>
<g><path style="opacity:1" fill="#8ab8ef" d="M 70.5,41.5 C 79.6966,41.8941 89.5299,41.8941 100,41.5C 102.478,43.2866 105.311,44.2866 108.5,44.5C 110.935,48.7994 112.602,53.466 113.5,58.5C 112.352,59.895 111.352,59.7284 110.5,58C 107.805,57.7457 105.305,57.579 103,57.5C 101.168,58.8583 99.3351,59.1916 97.5,58.5C 96.8076,59.0253 96.3076,59.6919 96,60.5C 94.3333,57.8333 92.6667,57.8333 91,60.5C 90.3946,58.5188 89.3946,58.1854 88,59.5C 86.6667,58.8333 85.3333,58.1667 84,57.5C 80.3666,57.4829 76.5332,57.6496 72.5,58C 71.8828,60.277 71.2161,62.4437 70.5,64.5C 70.5,56.8333 70.5,49.1667 70.5,41.5 Z"/></g>
<g><path style="opacity:0.428" fill="#1871df" d="M 589.5,47.5 C 598.833,47.5 608.167,47.5 617.5,47.5C 608.676,48.3297 599.676,48.8297 590.5,49C 599.827,49.4998 609.161,49.6665 618.5,49.5C 618.5,50.8333 618.5,52.1667 618.5,53.5C 617.167,53.5 615.833,53.5 614.5,53.5C 603.5,53.5 592.5,53.5 581.5,53.5C 581.414,52.5041 581.748,51.6708 582.5,51C 583.737,50.7679 584.737,50.2679 585.5,49.5C 587.483,49.8432 588.817,49.1765 589.5,47.5 Z"/></g>
<g><path style="opacity:0.399" fill="#096cbd" d="M 525.5,54.5 C 529.426,57.2567 532.926,60.59 536,64.5C 536.167,64.8333 536.333,65.1667 536.5,65.5C 535.398,66.1757 534.398,66.8423 533.5,67.5C 531.66,65.832 529.66,64.332 527.5,63C 516.383,58.1446 505.716,52.6446 495.5,46.5C 495.281,45.325 495.614,44.325 496.5,43.5C 498.982,44.8972 501.648,45.7306 504.5,46C 511.198,49.9461 518.198,52.7794 525.5,54.5 Z"/></g>
<g><path style="opacity:0.557" fill="#071a31" d="M 347.5,32.5 C 349.843,38.503 351.343,44.8363 352,51.5C 354.144,68.3256 351.81,84.6589 345,100.5C 344.623,101.942 343.79,102.942 342.5,103.5C 345.865,95.8975 348.365,87.8975 350,79.5C 351.214,63.6918 350.38,48.0251 347.5,32.5 Z"/></g>
<g><path style="opacity:1" fill="#4f8ccd" d="M 612.5,56.5 C 612.5,58.8333 612.5,61.1667 612.5,63.5C 599.5,63.5 586.5,63.5 573.5,63.5C 573.5,69.5 573.5,75.5 573.5,81.5C 569.47,81.5275 565.803,81.1942 562.5,80.5C 562.5,72.8333 562.5,65.1667 562.5,57.5C 565.487,57.348 568.154,57.0147 570.5,56.5C 571.478,56.9767 572.311,57.6433 573,58.5C 575.069,57.7362 577.236,57.2362 579.5,57C 590.495,56.5002 601.495,56.3335 612.5,56.5 Z"/></g>
<g><path style="opacity:0.668" fill="#064983" d="M 165.5,3.5 C 175.891,24.13 185.058,45.4633 193,67.5C 193.333,67.8333 193.667,68.1667 194,68.5C 194.782,65.6898 195.616,63.0232 196.5,60.5C 196.187,64.0419 196.521,67.3752 197.5,70.5C 196.626,73.9188 195.46,77.2522 194,80.5C 183.349,57.3833 173.183,34.05 163.5,10.5C 166.223,8.72873 166.889,6.39539 165.5,3.5 Z"/></g>
<g><path style="opacity:0.999" fill="#538ecf" d="M 223.5,12.5 C 227.167,12.5 230.833,12.5 234.5,12.5C 234.5,45.8333 234.5,79.1667 234.5,112.5C 231.5,112.5 228.5,112.5 225.5,112.5C 225.833,86.1582 225.5,59.8249 224.5,33.5C 223.201,34.09 222.368,35.09 222,36.5C 217.666,49.1453 212.833,61.4786 207.5,73.5C 207.631,72.6236 207.298,71.9569 206.5,71.5C 204.307,71.6617 201.974,72.3284 199.5,73.5C 207.5,53.1667 215.5,32.8333 223.5,12.5 Z M 221.5,45.5 C 222.468,47.6074 222.802,49.9407 222.5,52.5C 221.209,52.7373 220.209,52.404 219.5,51.5C 220.738,49.7857 221.405,47.7857 221.5,45.5 Z"/></g>
<g><path style="opacity:1" fill="#5791d2" d="M 487.5,29.5 C 486.149,37.9541 488.816,44.7874 495.5,50C 505.68,55.2564 516.014,60.2564 526.5,65C 528.618,66.0491 530.284,67.5491 531.5,69.5C 525.474,68.5644 519.807,68.2311 514.5,68.5C 513.478,68.8555 512.811,69.5222 512.5,70.5C 504.621,67.5621 496.954,64.0621 489.5,60C 478.315,52.7689 473.982,42.6023 476.5,29.5C 480.214,28.4538 483.88,28.4538 487.5,29.5 Z"/></g>
<g><path style="opacity:0.262" fill="#167adc" d="M 264.5,31.5 C 261.594,36.7807 259.761,42.4474 259,48.5C 257.39,63.4743 258.723,78.141 263,92.5C 264.667,95.5 266.333,98.5 268,101.5C 270.705,104.036 273.205,106.703 275.5,109.5C 275.921,111.91 277.254,113.743 279.5,115C 277.831,115.122 276.165,114.788 274.5,114C 269.156,108.561 263.822,103.394 258.5,98.5C 254.385,90.7939 252.219,82.4606 252,73.5C 251.236,61.6714 252.07,50.0047 254.5,38.5C 256.51,36.5535 258.176,36.5535 259.5,38.5C 260.762,35.8845 261.928,33.2179 263,30.5C 263.383,31.056 263.883,31.3893 264.5,31.5 Z"/></g>
<g><path style="opacity:0.743" fill="#0f508d" d="M 219.5,51.5 C 220.209,52.404 221.209,52.7373 222.5,52.5C 222.5,59.8333 222.5,67.1667 222.5,74.5C 221.065,75.9133 220.065,77.58 219.5,79.5C 219.828,74.1254 219.495,68.7921 218.5,63.5C 211.649,75.6793 206.316,88.6793 202.5,102.5C 196.833,102.5 191.167,102.5 185.5,102.5C 186.11,101.609 186.443,100.609 186.5,99.5C 191.214,99.8266 195.88,99.4933 200.5,98.5C 206.664,82.6534 212.998,66.9868 219.5,51.5 Z"/></g>
<g><path style="opacity:0.515" fill="#041f3c" d="M 389.5,39.5 C 383.667,56.4958 384.334,73.1625 391.5,89.5C 390.542,89.0472 389.708,88.3805 389,87.5C 384.225,73.4681 383.225,59.1348 386,44.5C 387.189,42.7669 388.356,41.1002 389.5,39.5 Z"/></g>
<g><path style="opacity:0.715" fill="#054b87" d="M 617.5,47.5 C 619.262,48.2623 620.262,49.5956 620.5,51.5C 619.71,52.6085 619.21,53.9419 619,55.5C 618.501,60.1548 618.334,64.8215 618.5,69.5C 605.5,69.5 592.5,69.5 579.5,69.5C 579.5,78.5 579.5,87.5 579.5,96.5C 581.5,96.5 583.5,96.5 585.5,96.5C 584.4,97.6049 583.733,98.9382 583.5,100.5C 581.167,100.5 578.833,100.5 576.5,100.5C 576.5,89.1667 576.5,77.8333 576.5,66.5C 589.344,66.8287 602.011,66.4954 614.5,65.5C 614.5,61.5 614.5,57.5 614.5,53.5C 615.833,53.5 617.167,53.5 618.5,53.5C 618.5,52.1667 618.5,50.8333 618.5,49.5C 609.161,49.6665 599.827,49.4998 590.5,49C 599.676,48.8297 608.676,48.3297 617.5,47.5 Z"/></g>
<g><path style="opacity:0.821" fill="#7a9ec5" d="M 614.5,65.5 C 602.011,66.4954 589.344,66.8287 576.5,66.5C 576.5,77.8333 576.5,89.1667 576.5,100.5C 578.833,100.5 581.167,100.5 583.5,100.5C 597.344,100.171 611.01,100.504 624.5,101.5C 624.818,106.032 624.485,110.366 623.5,114.5C 623.5,110.167 623.5,105.833 623.5,101.5C 607.5,101.5 591.5,101.5 575.5,101.5C 575.5,89.5 575.5,77.5 575.5,65.5C 588.5,65.5 601.5,65.5 614.5,65.5 Z"/></g>
<g><path style="opacity:0.538" fill="#08182c" d="M 620.5,51.5 C 620.666,57.1764 620.499,62.8431 620,68.5C 619.692,69.3081 619.192,69.9747 618.5,70.5C 606.049,71.4261 593.716,71.7594 581.5,71.5C 581.5,79.5 581.5,87.5 581.5,95.5C 583.833,95.5 586.167,95.5 588.5,95.5C 587.791,96.404 586.791,96.7373 585.5,96.5C 583.5,96.5 581.5,96.5 579.5,96.5C 579.5,87.5 579.5,78.5 579.5,69.5C 592.5,69.5 605.5,69.5 618.5,69.5C 618.334,64.8215 618.501,60.1548 619,55.5C 619.21,53.9419 619.71,52.6085 620.5,51.5 Z"/></g>
<g><path style="opacity:0.999" fill="#7cafe9" d="M 55.5,60.5 C 55.8333,65.8333 56.1667,71.1667 56.5,76.5C 55.5178,75.8592 54.5178,75.1925 53.5,74.5C 39.8059,75.6948 25.6392,75.6948 11,74.5C 10.7679,75.7375 10.2679,76.7375 9.5,77.5C 9.98925,72.1028 10.6559,66.7695 11.5,61.5C 12.4745,60.365 13.6412,59.365 15,58.5C 24.7212,59.6506 34.3879,59.6506 44,58.5C 47.8297,59.1995 51.663,59.8662 55.5,60.5 Z"/></g>
<g><path style="opacity:1" fill="#7cafe9" d="M 113.5,58.5 C 115.066,64.3841 115.732,70.3841 115.5,76.5C 114.849,75.9094 114.182,75.2427 113.5,74.5C 99.4022,74.6476 85.0689,74.9809 70.5,75.5C 70.5,71.8333 70.5,68.1667 70.5,64.5C 71.2161,62.4437 71.8828,60.277 72.5,58C 76.5332,57.6496 80.3666,57.4829 84,57.5C 85.3333,58.1667 86.6667,58.8333 88,59.5C 89.3946,58.1854 90.3946,58.5188 91,60.5C 92.6667,57.8333 94.3333,57.8333 96,60.5C 96.3076,59.6919 96.8076,59.0253 97.5,58.5C 99.3351,59.1916 101.168,58.8583 103,57.5C 105.305,57.579 107.805,57.7457 110.5,58C 111.352,59.7284 112.352,59.895 113.5,58.5 Z"/></g>
<g><path style="opacity:0.524" fill="#07172b" d="M 164.5,68.5 C 165.324,72.3123 165.824,76.3123 166,80.5C 166.667,92.8333 166.667,105.167 166,117.5C 164.486,119.766 162.319,120.932 159.5,121C 154.648,121.815 149.981,121.648 145.5,120.5C 151.699,118.817 158.032,118.151 164.5,118.5C 164.5,101.833 164.5,85.1667 164.5,68.5 Z"/></g>
<g><path style="opacity:1" fill="#9fbde1" d="M 223.5,12.5 C 227.298,11.5166 231.298,11.1832 235.5,11.5C 235.832,45.3375 235.498,79.0041 234.5,112.5C 234.5,79.1667 234.5,45.8333 234.5,12.5C 230.833,12.5 227.167,12.5 223.5,12.5 Z"/></g>
<g><path style="opacity:0.631" fill="#0d4c86" d="M 472.5,55.5 C 475.251,57.7453 477.917,60.2453 480.5,63C 482.879,63.6139 485.212,63.9472 487.5,64C 486.177,63.1841 485.511,62.0174 485.5,60.5C 495.509,65.8356 505.843,70.6689 516.5,75C 520.965,76.8748 523.965,80.0414 525.5,84.5C 524.85,84.1961 524.183,83.8627 523.5,83.5C 522.868,86.1024 521.868,88.4357 520.5,90.5C 520.857,86.336 519.19,83.1693 515.5,81C 505.582,76.4721 495.582,72.1388 485.5,68C 479.983,64.9815 475.65,60.8148 472.5,55.5 Z"/></g>
<g><path style="opacity:0.413" fill="#0c6cbe" d="M 173.5,73.5 C 177.456,82.377 181.789,91.0437 186.5,99.5C 186.443,100.609 186.11,101.609 185.5,102.5C 183.653,103.573 181.653,103.573 179.5,102.5C 178.227,100.287 177.227,97.9538 176.5,95.5C 177.043,95.44 177.376,95.1067 177.5,94.5C 174.772,88.3371 172.772,82.0037 171.5,75.5C 171.747,74.2867 172.414,73.62 173.5,73.5 Z"/></g>
<g><path style="opacity:0.747" fill="#084c88" d="M 423.5,3.5 C 433.784,5.13676 441.451,10.4701 446.5,19.5C 449.321,25.8118 452.155,32.1451 455,38.5C 458.839,58.055 458.006,77.3883 452.5,96.5C 447.276,104.066 441.276,111.066 434.5,117.5C 430.185,118.106 426.185,119.606 422.5,122C 408.628,124.888 395.294,123.388 382.5,117.5C 371.773,111.088 364.773,101.755 361.5,89.5C 362.87,89.8565 363.87,90.6898 364.5,92C 365.828,95.1237 366.828,98.2904 367.5,101.5C 368.822,101.33 369.989,101.663 371,102.5C 371.494,100.866 371.66,99.1992 371.5,97.5C 377.73,107.886 386.73,114.72 398.5,118C 429.608,121.231 447.775,107.397 453,76.5C 453.875,65.7826 453.541,55.1159 452,44.5C 448.538,29.2281 440.038,17.8947 426.5,10.5C 427.833,10.5 429.167,10.5 430.5,10.5C 430.67,9.17793 430.337,8.01127 429.5,7C 427.899,6.72662 426.399,6.22662 425,5.5C 424.667,5.83333 424.333,6.16667 424,6.5C 423.517,5.55198 423.351,4.55198 423.5,3.5 Z"/></g>
<g><path style="opacity:0.718" fill="#072d53" d="M 219.5,79.5 C 219.58,82.7814 218.913,85.7814 217.5,88.5C 218.469,81.1894 218.636,73.8561 218,66.5C 214.527,79.2624 209.693,91.429 203.5,103C 196.615,104.687 189.615,105.353 182.5,105C 181.058,104.623 180.058,103.79 179.5,102.5C 181.653,103.573 183.653,103.573 185.5,102.5C 191.167,102.5 196.833,102.5 202.5,102.5C 206.316,88.6793 211.649,75.6793 218.5,63.5C 219.495,68.7921 219.828,74.1254 219.5,79.5 Z"/></g>
<g><path style="opacity:1" fill="#6ea7e3" d="M 56.5,76.5 C 57.1995,80.7978 57.5328,85.1311 57.5,89.5C 57.5,90.8333 57.5,92.1667 57.5,93.5C 46.0969,93.9344 35.9302,94.2678 27,94.5C 26,93.8333 25,93.1667 24,92.5C 20.4282,92.9814 16.4282,92.9814 12,92.5C 10.7475,95.0135 10.2475,97.6802 10.5,100.5C 10.1667,100.5 9.83333,100.5 9.5,100.5C 9.5,92.8333 9.5,85.1667 9.5,77.5C 10.2679,76.7375 10.7679,75.7375 11,74.5C 25.6392,75.6948 39.8059,75.6948 53.5,74.5C 54.5178,75.1925 55.5178,75.8592 56.5,76.5 Z"/></g>
<g><path style="opacity:1" fill="#6ea7e3" d="M 115.5,76.5 C 115.5,82.1667 115.5,87.8333 115.5,93.5C 101.01,93.9982 86.0099,93.9982 70.5,93.5C 70.5,87.5 70.5,81.5 70.5,75.5C 85.0689,74.9809 99.4022,74.6476 113.5,74.5C 114.182,75.2427 114.849,75.9094 115.5,76.5 Z"/></g>
<g><path style="opacity:1" fill="#4684c5" d="M 158.5,112.5 C 155.833,112.5 153.167,112.5 150.5,112.5C 150.333,88.831 150.5,65.1643 151,41.5C 152.889,40.9106 154.889,40.5773 157,40.5C 158.489,64.3504 158.989,88.3504 158.5,112.5 Z"/></g>
<g><path style="opacity:0.552" fill="#6ca0d3" d="M 223.5,114.5 C 222.504,101.344 222.171,88.0105 222.5,74.5C 222.5,67.1667 222.5,59.8333 222.5,52.5C 222.802,49.9407 222.468,47.6074 221.5,45.5C 221.892,43.8211 222.392,42.1545 223,40.5C 223.5,65.1644 223.667,89.8311 223.5,114.5 Z"/></g>
<g><path style="opacity:0.039" fill="#144072" d="M 359.5,45.5 C 358.999,58.3479 359.666,71.1812 361.5,84C 361.486,85.3847 361.152,86.5514 360.5,87.5C 358.528,73.3468 358.194,59.3468 359.5,45.5 Z"/></g>
<g><path style="opacity:1" fill="#4a86c6" d="M 175.5,44.5 C 181.394,58.6219 187.561,72.6219 194,86.5C 195.848,82.1408 197.682,77.8075 199.5,73.5C 201.974,72.3284 204.307,71.6617 206.5,71.5C 207.298,71.9569 207.631,72.6236 207.5,73.5C 204.969,81.2586 202.135,88.9253 199,96.5C 194.882,97.7977 190.715,97.7977 186.5,96.5C 179.211,79.5928 172.211,62.5928 165.5,45.5C 165.97,44.3065 166.97,43.6399 168.5,43.5C 170.818,43.9971 173.152,44.3305 175.5,44.5 Z"/></g>
<g><path style="opacity:0.338" fill="#0b84e5" d="M 222.5,74.5 C 222.171,88.0105 222.504,101.344 223.5,114.5C 224.303,115.423 224.47,116.423 224,117.5C 222.698,118.085 221.531,118.751 220.5,119.5C 220.5,119.833 220.5,120.167 220.5,120.5C 218.182,120.182 216.848,118.848 216.5,116.5C 216.925,107.114 217.259,97.7802 217.5,88.5C 218.913,85.7814 219.58,82.7814 219.5,79.5C 220.065,77.58 221.065,75.9133 222.5,74.5 Z"/></g>
<g><path style="opacity:0.164" fill="#1382e9" d="M 428.5,30.5 C 432.97,36.7227 435.803,43.7227 437,51.5C 439.273,67.9558 436.273,83.2891 428,97.5C 420.719,105.072 411.886,107.572 401.5,105C 399.509,104.626 397.842,103.793 396.5,102.5C 396.436,101.421 396.936,100.421 398,99.5C 400.653,100.716 403.153,100.716 405.5,99.5C 407.402,100.511 409.402,100.678 411.5,100C 420.307,97.86 425.807,92.36 428,83.5C 431.818,71.6304 432.318,59.6304 429.5,47.5C 430.097,47.2648 430.43,46.7648 430.5,46C 429.35,41.7156 428.016,37.549 426.5,33.5C 426.942,32.2613 427.609,31.2613 428.5,30.5 Z"/></g>
<g><path style="opacity:0.289" fill="#1083e5" d="M 525.5,84.5 C 527.552,94.2217 523.886,101.055 514.5,105C 508.5,105.667 502.5,105.667 496.5,105C 494.509,104.626 492.842,103.793 491.5,102.5C 494.366,101.035 497.366,100.035 500.5,99.5C 509.41,101.377 516.077,98.3767 520.5,90.5C 521.868,88.4357 522.868,86.1024 523.5,83.5C 524.183,83.8627 524.85,84.1961 525.5,84.5 Z"/></g>
<g><path style="opacity:0.373" fill="#1b7be7" d="M 491.5,87.5 C 490.147,89.193 488.48,90.5264 486.5,91.5C 481.36,90.5119 476.026,90.1786 470.5,90.5C 470.709,95.6666 471.709,100.667 473.5,105.5C 473.721,109.795 472.388,110.462 469.5,107.5C 471.04,106.468 471.54,105.135 471,103.5C 470,106.167 469,106.167 468,103.5C 467.23,104.598 466.397,104.598 465.5,103.5C 464.382,97.916 464.215,92.2493 465,86.5C 465.5,86 466,85.5 466.5,85C 473.726,83.4055 481.06,83.0722 488.5,84C 490.426,84.4224 491.426,85.5891 491.5,87.5 Z"/></g>
<g><path style="opacity:0.999" fill="#609fde" d="M 57.5,93.5 C 57.8182,98.0323 57.4849,102.366 56.5,106.5C 41.676,105.504 26.676,105.171 11.5,105.5C 10.6993,103.958 10.366,102.292 10.5,100.5C 10.2475,97.6802 10.7475,95.0135 12,92.5C 16.4282,92.9814 20.4282,92.9814 24,92.5C 25,93.1667 26,93.8333 27,94.5C 35.9302,94.2678 46.0969,93.9344 57.5,93.5 Z"/></g>
<g><path style="opacity:1" fill="#5e9ddc" d="M 70.5,93.5 C 86.0099,93.9982 101.01,93.9982 115.5,93.5C 114.992,98.2158 114.158,102.882 113,107.5C 111.695,110.961 109.529,113.628 106.5,115.5C 102.196,117.271 97.8626,118.604 93.5,119.5C 85.8583,120.898 79.3583,118.898 74,113.5C 71.2261,107.129 70.0594,100.462 70.5,93.5 Z"/></g>
<g><path style="opacity:0.751" fill="#09447a" d="M 320.5,4.5 C 326.632,5.81686 331.799,8.81686 336,13.5C 337.961,16.4628 340.294,19.1294 343,21.5C 345.066,24.9605 346.566,28.6272 347.5,32.5C 350.38,48.0251 351.214,63.6918 350,79.5C 348.365,87.8975 345.865,95.8975 342.5,103.5C 340.558,108.441 337.225,112.108 332.5,114.5C 314.401,125.463 295.734,126.296 276.5,117C 272.273,113.263 267.94,109.763 263.5,106.5C 261.336,104.178 259.669,101.511 258.5,98.5C 263.822,103.394 269.156,108.561 274.5,114C 276.165,114.788 277.831,115.122 279.5,115C 277.254,113.743 275.921,111.91 275.5,109.5C 286.409,118.046 298.742,120.879 312.5,118C 333.09,111.37 344.59,97.2029 347,75.5C 351.182,51.5517 344.682,31.2184 327.5,14.5C 329.679,14.84 331.512,15.84 333,17.5C 333.667,16.5 333.667,15.5 333,14.5C 330.411,10.33 326.744,7.66336 322,6.5C 321.667,6.83333 321.333,7.16667 321,7.5C 320.517,6.55198 320.351,5.55198 320.5,4.5 Z"/></g>
<g><path style="opacity:0.637" fill="#04467e" d="M 491.5,87.5 C 490.251,94.8244 493.251,98.8244 500.5,99.5C 497.366,100.035 494.366,101.035 491.5,102.5C 489.051,101.06 487.385,99.06 486.5,96.5C 486.5,94.8333 486.5,93.1667 486.5,91.5C 488.48,90.5264 490.147,89.193 491.5,87.5 Z"/></g>
<g><path style="opacity:0.751" fill="#0a4c87" d="M 525.5,54.5 C 530.706,56.0571 534.706,59.0571 537.5,63.5C 546.181,74.8926 548.347,87.5592 544,101.5C 540.638,109.531 535.138,115.698 527.5,120C 515.258,122.302 502.925,122.968 490.5,122C 481.927,121.052 475.26,117.052 470.5,110C 469.906,109.536 469.239,109.369 468.5,109.5C 466.992,107.819 465.992,105.819 465.5,103.5C 466.397,104.598 467.23,104.598 468,103.5C 469,106.167 470,106.167 471,103.5C 471.54,105.135 471.04,106.468 469.5,107.5C 472.388,110.462 473.721,109.795 473.5,105.5C 478.322,112.421 484.989,116.588 493.5,118C 501.167,118.667 508.833,118.667 516.5,118C 524.367,116.984 530.867,113.484 536,107.5C 545.385,93.3633 544.552,80.03 533.5,67.5C 534.398,66.8423 535.398,66.1757 536.5,65.5C 536.333,65.1667 536.167,64.8333 536,64.5C 532.926,60.59 529.426,57.2567 525.5,54.5 Z"/></g>
<g><path style="opacity:0.396" fill="#1b7bec" d="M 629.5,98.5 C 629.167,98.5 628.833,98.5 628.5,98.5C 627.764,100.229 626.43,101.229 624.5,101.5C 611.01,100.504 597.344,100.171 583.5,100.5C 583.733,98.9382 584.4,97.6049 585.5,96.5C 586.791,96.7373 587.791,96.404 588.5,95.5C 600.993,94.34 613.66,94.1733 626.5,95C 628.426,95.4224 629.426,96.5891 629.5,98.5 Z"/></g>
<g><path style="opacity:0.735" fill="#074d8a" d="M 165.5,54.5 C 168.931,60.4429 171.597,66.7762 173.5,73.5C 172.414,73.62 171.747,74.2867 171.5,75.5C 172.772,82.0037 174.772,88.3371 177.5,94.5C 177.376,95.1067 177.043,95.44 176.5,95.5C 172.71,85.6303 169.21,75.6303 166,65.5C 165.667,65.1667 165.333,64.8333 165,64.5C 164.51,65.7932 164.343,67.1266 164.5,68.5C 164.5,85.1667 164.5,101.833 164.5,118.5C 158.032,118.151 151.699,118.817 145.5,120.5C 144.508,120.672 143.842,120.338 143.5,119.5C 144.568,118.566 145.901,118.232 147.5,118.5C 147.5,117.167 147.5,115.833 147.5,114.5C 152.167,114.5 156.833,114.5 161.5,114.5C 161.5,94.8333 161.5,75.1667 161.5,55.5C 163.263,56.9538 164.597,56.6204 165.5,54.5 Z"/></g>
<g><path style="opacity:1" fill="#417fbe" d="M 378.5,68.5 C 378.858,72.5092 379.358,76.5092 380,80.5C 382.024,91.7444 387.857,100.244 397.5,106C 410.587,110.77 421.754,107.936 431,97.5C 436.618,89.0325 439.451,79.6992 439.5,69.5C 440.193,65.4345 440.86,61.2679 441.5,57C 444.492,56.9574 447.826,57.124 451.5,57.5C 452.824,72.0489 449.99,85.7155 443,98.5C 430.226,115.089 413.726,120.256 393.5,114C 377.394,105.373 368.728,91.8731 367.5,73.5C 367.5,68.1667 367.5,62.8333 367.5,57.5C 370.879,57.3218 374.045,57.3218 377,57.5C 377.177,61.3563 377.677,65.023 378.5,68.5 Z"/></g>
<g><path style="opacity:1" fill="#3d7bba" d="M 531.5,69.5 C 535.195,71.8694 537.695,75.2027 539,79.5C 542.513,93.9735 538.013,105.14 525.5,113C 512.928,117.195 500.262,117.529 487.5,114C 478.181,109.861 473.514,102.695 473.5,92.5C 477.167,92.5 480.833,92.5 484.5,92.5C 484.298,94.9496 484.631,97.283 485.5,99.5C 486.028,100.721 486.695,101.887 487.5,103C 492.898,106.743 498.898,108.577 505.5,108.5C 522.018,108.154 529.518,99.8203 528,83.5C 524.231,77.57 519.065,73.2367 512.5,70.5C 512.811,69.5222 513.478,68.8555 514.5,68.5C 519.807,68.2311 525.474,68.5644 531.5,69.5 Z"/></g>
<g><path style="opacity:0.736" fill="#114f8a" d="M 628.5,98.5 C 628.811,105.09 628.478,111.59 627.5,118C 604.817,118.231 582.15,118.731 559.5,119.5C 561.401,118.065 561.734,116.398 560.5,114.5C 581.5,114.5 602.5,114.5 623.5,114.5C 624.485,110.366 624.818,106.032 624.5,101.5C 626.43,101.229 627.764,100.229 628.5,98.5 Z"/></g>
<g><path style="opacity:1" fill="#3476b5" d="M 562.5,80.5 C 565.803,81.1942 569.47,81.5275 573.5,81.5C 573.5,88.8333 573.5,96.1667 573.5,103.5C 589.5,103.5 605.5,103.5 621.5,103.5C 621.5,106.5 621.5,109.5 621.5,112.5C 601.833,112.5 582.167,112.5 562.5,112.5C 562.5,101.833 562.5,91.1667 562.5,80.5 Z"/></g>
<g><path style="opacity:0.98" fill="#e0e8f1" d="M 327.5,14.5 C 344.682,31.2184 351.182,51.5517 347,75.5C 344.59,97.2029 333.09,111.37 312.5,118C 298.742,120.879 286.409,118.046 275.5,109.5C 273.205,106.703 270.705,104.036 268,101.5C 266.333,98.5 264.667,95.5 263,92.5C 258.723,78.141 257.39,63.4743 259,48.5C 259.761,42.4474 261.594,36.7807 264.5,31.5C 265.82,28.1943 267.653,25.1943 270,22.5C 287.15,5.66548 306.316,2.99881 327.5,14.5 Z M 324.5,56.5 C 325.269,66.7486 324.102,76.7486 321,86.5C 317.276,94.3904 311.109,99.057 302.5,100.5C 292.015,98.1839 285.181,91.8506 282,81.5C 277.12,64.2353 279.12,47.902 288,32.5C 299.476,21.1922 309.809,22.1922 319,35.5C 321.929,42.2173 323.763,49.2173 324.5,56.5 Z"/></g>
<g><path style="opacity:1" fill="#4380c0" d="M 260.5,56.5 C 263.874,56.874 267.54,57.2073 271.5,57.5C 271.183,61.7016 271.517,65.7016 272.5,69.5C 272.293,85.4235 278.626,97.7569 291.5,106.5C 286.831,106.593 282.498,106.26 278.5,105.5C 277.702,105.957 277.369,106.624 277.5,107.5C 267.223,98.2711 261.723,86.6045 261,72.5C 260.501,67.1771 260.334,61.8437 260.5,56.5 Z"/></g>
<g><path style="opacity:1" fill="#3f7ebd" d="M 344.5,70.5 C 342.656,102.852 325.656,118.018 293.5,116C 287.374,114.44 282.041,111.607 277.5,107.5C 277.369,106.624 277.702,105.957 278.5,105.5C 282.498,106.26 286.831,106.593 291.5,106.5C 313.47,111.415 326.97,102.749 332,80.5C 333.311,72.8948 333.811,65.2282 333.5,57.5C 337.106,57.7892 340.606,57.4558 344,56.5C 344.499,61.1548 344.666,65.8215 344.5,70.5 Z"/></g>
<g><path style="opacity:0.997" fill="#e1e9f2" d="M 333.5,57.5 C 333.811,65.2282 333.311,72.8948 332,80.5C 326.97,102.749 313.47,111.415 291.5,106.5C 278.626,97.7569 272.293,85.4235 272.5,69.5C 270.207,53.6738 273.707,39.3405 283,26.5C 291.826,18.4998 301.992,16.3331 313.5,20C 327.083,28.6598 333.75,41.1598 333.5,57.5 Z M 324.5,56.5 C 325.269,66.7486 324.102,76.7486 321,86.5C 317.276,94.3904 311.109,99.057 302.5,100.5C 292.015,98.1839 285.181,91.8506 282,81.5C 277.12,64.2353 279.12,47.902 288,32.5C 299.476,21.1922 309.809,22.1922 319,35.5C 321.929,42.2173 323.763,49.2173 324.5,56.5 Z"/></g>
<g><path style="opacity:0.312" fill="#1583e9" d="M 325.5,36.5 C 327.163,38.4927 328.33,40.8261 329,43.5C 333.193,61.0976 331.526,78.0976 324,94.5C 316.73,104.704 306.896,108.204 294.5,105C 291.761,103.974 289.428,102.474 287.5,100.5C 292.562,100.791 297.562,100.791 302.5,100.5C 311.109,99.057 317.276,94.3904 321,86.5C 324.102,76.7486 325.269,66.7486 324.5,56.5C 325.693,56.0296 326.36,55.0296 326.5,53.5C 324.637,47.9094 322.97,42.2427 321.5,36.5C 321.833,35.8333 322.167,35.1667 322.5,34.5C 323.518,35.1925 324.518,35.8592 325.5,36.5 Z"/></g>
<g><path style="opacity:0.75" fill="#0a457b" d="M 325.5,36.5 C 324.518,35.8592 323.518,35.1925 322.5,34.5C 322.167,35.1667 321.833,35.8333 321.5,36.5C 322.97,42.2427 324.637,47.9094 326.5,53.5C 326.36,55.0296 325.693,56.0296 324.5,56.5C 323.763,49.2173 321.929,42.2173 319,35.5C 309.809,22.1922 299.476,21.1922 288,32.5C 279.12,47.902 277.12,64.2353 282,81.5C 285.181,91.8506 292.015,98.1839 302.5,100.5C 297.562,100.791 292.562,100.791 287.5,100.5C 279.595,92.995 275.429,83.6617 275,72.5C 272.695,57.9944 275.029,44.3277 282,31.5C 291.42,19.9646 302.92,17.4646 316.5,24C 320.907,27.2273 323.907,31.394 325.5,36.5 Z"/></g>
<g><path style="opacity:1" fill="#679ee1" d="M 344.5,70.5 C 344.666,65.8215 344.499,61.1548 344,56.5C 340.606,57.4558 337.106,57.7892 333.5,57.5C 333.75,41.1598 327.083,28.6598 313.5,20C 301.992,16.3331 291.826,18.4998 283,26.5C 273.707,39.3405 270.207,53.6738 272.5,69.5C 271.517,65.7016 271.183,61.7016 271.5,57.5C 267.54,57.2073 263.874,56.874 260.5,56.5C 260.906,38.8479 268.24,25.0146 282.5,15C 304.328,5.17162 322.494,9.67162 337,28.5C 344.076,41.8316 346.576,55.8316 344.5,70.5 Z"/></g>
<g><path style="opacity:0.439" fill="#071325" d="M 452.5,96.5 C 449.385,105.95 443.385,112.95 434.5,117.5C 441.276,111.066 447.276,104.066 452.5,96.5 Z"/></g>
<g><path style="opacity:0.004" fill="#4915ff" d="M 553.5,109.5 C 554.323,112.684 554.99,116.017 555.5,119.5C 554.883,119.389 554.383,119.056 554,118.5C 553.502,115.518 553.335,112.518 553.5,109.5 Z"/></g>
<g><path style="opacity:1" fill="#a0a3a7" d="M 57.5,89.5 C 58.3247,93.6472 58.8247,97.9805 59,102.5C 59.499,98.1794 59.6657,93.8461 59.5,89.5C 64.3714,111.64 55.3714,122.307 32.5,121.5C 17.8727,123.183 9.87274,116.85 8.5,102.5C 9.33825,102.158 9.67158,101.492 9.5,100.5C 9.83333,100.5 10.1667,100.5 10.5,100.5C 10.366,102.292 10.6993,103.958 11.5,105.5C 11.5675,110.076 13.5675,113.576 17.5,116C 28.931,120.691 40.2643,120.358 51.5,115C 54.6751,113.005 56.3417,110.172 56.5,106.5C 57.4849,102.366 57.8182,98.0323 57.5,93.5C 57.5,92.1667 57.5,90.8333 57.5,89.5 Z"/></g>
<g><path style="opacity:0.998" fill="#5899da" d="M 11.5,105.5 C 26.676,105.171 41.676,105.504 56.5,106.5C 56.3417,110.172 54.6751,113.005 51.5,115C 40.2643,120.358 28.931,120.691 17.5,116C 13.5675,113.576 11.5675,110.076 11.5,105.5 Z"/></g>
<g><path style="opacity:1" fill="#8b8d90" d="M 106.5,115.5 C 107.5,115.5 108.5,115.5 109.5,115.5C 108.657,117.173 107.324,118.34 105.5,119C 96.0403,123.104 86.707,123.271 77.5,119.5C 85.562,120.931 90.8953,120.931 93.5,119.5C 97.8626,118.604 102.196,117.271 106.5,115.5 Z"/></g>
<g><path style="opacity:0.343" fill="#07101e" d="M 628.5,98.5 C 628.833,98.5 629.167,98.5 629.5,98.5C 629.666,105.175 629.5,111.842 629,118.5C 628.25,119.126 627.416,119.626 626.5,120C 607.329,120.352 588.162,120.852 569,121.5C 564.653,121.499 560.486,121.166 556.5,120.5C 557.391,119.89 558.391,119.557 559.5,119.5C 582.15,118.731 604.817,118.231 627.5,118C 628.478,111.59 628.811,105.09 628.5,98.5 Z"/></g>
<g><path style="opacity:0.367" fill="#020815" d="M 263.5,106.5 C 267.94,109.763 272.273,113.263 276.5,117C 295.734,126.296 314.401,125.463 332.5,114.5C 328.474,118.852 323.474,121.685 317.5,123C 302.867,126.238 288.867,124.572 275.5,118C 270.998,114.664 266.998,110.831 263.5,106.5 Z"/></g>
<g><path style="opacity:0.332" fill="#081527" d="M 537.5,63.5 C 540.889,65.7252 543.389,68.7252 545,72.5C 550.529,89.8706 547.029,105.037 534.5,118C 529.05,121.532 523.05,123.532 516.5,124C 505.389,124.995 494.389,124.328 483.5,122C 476.798,119.792 471.798,115.625 468.5,109.5C 469.239,109.369 469.906,109.536 470.5,110C 475.26,117.052 481.927,121.052 490.5,122C 502.925,122.968 515.258,122.302 527.5,120C 535.138,115.698 540.638,109.531 544,101.5C 548.347,87.5592 546.181,74.8926 537.5,63.5 Z"/></g>
<g><path style="opacity:0.157" fill="#000714" d="M 382.5,117.5 C 395.294,123.388 408.628,124.888 422.5,122C 426.185,119.606 430.185,118.106 434.5,117.5C 431.454,120.357 427.787,122.19 423.5,123C 413.5,125 403.5,125 393.5,123C 389.213,122.19 385.546,120.357 382.5,117.5 Z"/></g>
</svg>
